<svg id="logosandtypes_com" data-name="logosandtypes com" xmlns="http://www.w3.org/2000/svg" xmlns:xlink="http://www.w3.org/1999/xlink" viewBox="0 0 150 150"><defs><style>.cls-1{fill:none;}.cls-2{fill:url(#linear-gradient);}.cls-3{fill:#f624a0;}.cls-4{fill:#f58000;isolation:isolate;opacity:0.41;}</style><linearGradient id="linear-gradient" x1="-857.82" y1="596.4" x2="-853.73" y2="596.4" gradientTransform="matrix(34.01, 0, 0, -27.62, 29180.03, 16548.43)" gradientUnits="userSpaceOnUse"><stop offset="0" stop-color="#ff9200"/><stop offset="0.29" stop-color="#f36d00"/><stop offset="0.32" stop-color="#f4680b"/><stop offset="0.57" stop-color="#f83c72"/><stop offset="0.78" stop-color="#fc1cbe"/><stop offset="0.93" stop-color="#fe08ed"/><stop offset="1" stop-color="#f0f"/></linearGradient></defs><g id="Layer_3" data-name="Layer 3"><path id="Layer_3-2" data-name="Layer 3" class="cls-1" d="M0,.2H150v150H0Z" transform="translate(0 -0.2)"/></g><path id="Path" class="cls-2" d="M75.73,133.75a5.61,5.61,0,0,1-2.81-.73c-7.35-4.25-61.75-38.36-63.8-39.4A5,5,0,0,1,6.3,89.68V41.84a5.19,5.19,0,0,1,2.34-4.45L9,37.17c5.27-3.27,22.88-14,25.67-15.56A4.15,4.15,0,0,1,36.81,21a4.36,4.36,0,0,1,2,.5S63.46,37.59,67.23,39a19.51,19.51,0,0,0,8.44,1.77,18.94,18.94,0,0,0,9.46-2.31c3.69-1.94,27.24-16.88,27.49-16.88a3.73,3.73,0,0,1,2-.54,4.19,4.19,0,0,1,2.11.59c3.21,1.78,25,15.14,26,15.73h0a5.11,5.11,0,0,1,2.45,4.39V89.62a4.89,4.89,0,0,1-2.82,3.94C140.26,94.69,86,128.8,78.54,133A5.57,5.57,0,0,1,75.73,133.75Z" transform="translate(0 -0.2)"/><path id="Path-2" data-name="Path" class="cls-3" d="M75.45,133.75h.28a5.61,5.61,0,0,0,2.81-.73c7.35-4.25,61.72-38.36,63.77-39.4a4.89,4.89,0,0,0,2.82-3.94V41.84a5.15,5.15,0,0,0-.54-2.34l-69.14,38Z" transform="translate(0 -0.2)"/><path id="Path-3" data-name="Path" class="cls-4" d="M6.22,89.6a5,5,0,0,0,3,3.94c2.05,1.12,56.45,35.23,63.79,39.39a5.59,5.59,0,0,0,2.48.74V77.38L6.53,40a5.64,5.64,0,0,0-.31,1.78Z" transform="translate(0 -0.2)"/></svg>